# Wavefront Obj file
# 
# verts: 96 uv-s: 216
mtllib Placa_UV.mtl

g pPlane1

v -172.804474 721.837219 -14.047508
v 172.804474 721.837219 -14.047508
v -177.186005 940.190674 -14.047508
v 177.186005 940.190674 -14.047508
v -221.334076 892.416687 -14.047508
v 217.026947 892.416687 -14.047508
v -221.334076 770.924927 -14.047508
v 217.026947 770.924927 -14.047508
v -201.536163 910.368408 -14.047508
v 199.160507 910.368408 -14.047508
v -197.165054 753.359070 -14.047508
v 195.215881 753.359070 -14.047508
v -201.536163 910.368408 42.408440
v 199.160507 910.368408 42.408440
v 177.186005 940.190674 42.408440
v -177.186005 940.190674 42.408440
v -221.334076 770.924927 42.408440
v 217.026947 770.924927 42.408440
v 217.026947 892.416687 42.408440
v -221.334076 892.416687 42.408440
v -197.165054 753.359070 42.408440
v 195.215881 753.359070 42.408440
v -172.804474 721.837219 42.408440
v 172.804474 721.837219 42.408440
v -184.312515 903.513306 42.408440
v 181.770050 903.513306 42.408440
v 161.693726 930.759583 42.408440
v -162.065842 930.759583 42.408440
v -202.400192 776.115723 42.408440
v 198.093033 776.115723 42.408440
v 198.093033 887.112427 42.408440
v -202.400192 887.112427 42.408440
v -180.319016 760.067261 42.408440
v 178.166168 760.067261 42.408440
v -158.062805 731.268494 42.408440
v 157.690720 731.268494 42.408440
v -184.312515 903.513306 33.394764
v 181.770050 903.513306 33.394764
v 161.693726 930.759583 33.394764
v -162.065842 930.759583 33.394764
v -202.400192 776.115723 33.394764
v 198.093033 776.115723 33.394764
v 198.093033 887.112427 33.394764
v -202.400192 887.112427 33.394764
v -180.319016 760.067261 33.394764
v 178.166168 760.067261 33.394764
v -158.062805 731.268494 33.394764
v 157.690720 731.268494 33.394764
v 195.164001 908.793030 49.197552
v 173.625702 938.023315 49.197552
v 158.440994 928.779419 49.197552
v 178.118729 902.074097 49.197552
v -173.711197 938.023315 49.197552
v -158.891220 928.779419 49.197552
v -197.577957 908.793030 49.197552
v -180.696243 902.074097 49.197552
v 212.675705 772.117798 49.197552
v 212.675705 891.197693 49.197552
v 194.117706 885.998779 49.197552
v 194.117706 777.205627 49.197552
v -216.982880 772.117798 49.197552
v -216.982880 891.197693 49.197552
v -198.424835 777.205627 49.197552
v -198.424835 885.998779 49.197552
v 191.297668 754.900574 49.197552
v 174.586441 761.475830 49.197552
v -193.293640 754.900574 49.197552
v -176.782043 761.475830 49.197552
v -169.416672 724.004578 49.197552
v 169.331161 724.004578 49.197552
v 154.517441 733.248657 49.197552
v -154.967667 733.248657 49.197552
# 72 positions

vt 0.575262 0.448106
vt 0.220688 0.448106
vt 0.240133 0.421716
vt 0.553714 0.421716
vt 0.592781 0.571498
vt 0.204878 0.571498
vt 0.204878 0.463991
vt 0.592781 0.463991
vt 0.571394 0.587042
vt 0.224179 0.587042
vt 0.549838 0.614936
vt 0.244010 0.614936
vt 0.029176 0.807395
vt 0.052760 0.778511
vt 0.395992 0.778511
vt 0.417276 0.807396
vt 0.010000 0.942455
vt 0.010000 0.824783
vt 0.434580 0.824783
vt 0.434580 0.942455
vt 0.033409 0.959469
vt 0.413455 0.959469
vt 0.057004 0.990000
vt 0.391748 0.990000
vt 0.512454 0.943375
vt 0.475957 0.936144
vt 0.483697 0.881666
vt 0.518847 0.888121
vt 0.606871 0.549290
vt 0.951960 0.549290
vt 0.946507 0.603288
vt 0.604427 0.603912
vt 0.990000 0.554106
vt 0.982958 0.610601
vt 0.664619 0.942336
vt 0.538844 0.947229
vt 0.542275 0.893318
vt 0.656925 0.889938
vt 0.035739 0.548560
vt 0.161149 0.545954
vt 0.156957 0.599794
vt 0.042051 0.601379
vt 0.691361 0.936144
vt 0.682153 0.881942
vt 0.191618 0.551295
vt 0.184250 0.608185
vt 0.010000 0.553596
vt 0.017508 0.608115
vt 0.606592 0.306483
vt 0.262804 0.306483
vt 0.268361 0.252351
vt 0.601242 0.253206
vt 0.224393 0.300164
vt 0.232090 0.243612
vt 0.644970 0.300485
vt 0.638631 0.245535
vt 0.845293 0.961658
vt 0.824582 0.990000
vt 0.809925 0.981020
vt 0.828825 0.955134
vt 0.488770 0.989862
vt 0.503121 0.980900
vt 0.465792 0.961658
vt 0.482052 0.955010
vt 0.861826 0.829267
vt 0.862188 0.944628
vt 0.844224 0.939554
vt 0.843812 0.834134
vt 0.446848 0.944971
vt 0.444911 0.829668
vt 0.462997 0.834227
vt 0.464744 0.939584
vt 0.841029 0.812562
vt 0.824812 0.818910
vt 0.467719 0.812580
vt 0.483805 0.818812
vt 0.490938 0.782552
vt 0.819566 0.782678
vt 0.805179 0.791607
vt 0.504948 0.791475
vt 0.043688 0.441200
vt 0.011255 0.445981
vt 0.010000 0.437332
vt 0.042469 0.432498
vt 0.505799 0.211117
vt 0.878926 0.229029
vt 0.887818 0.234000
vt 0.505799 0.221373
vt 0.895307 0.192336
vt 0.904785 0.196921
vt 0.172098 0.439292
vt 0.065319 0.437115
vt 0.064607 0.428508
vt 0.173207 0.430663
vt 0.034602 0.525629
vt 0.141487 0.526222
vt 0.142507 0.534793
vt 0.033666 0.534270
vt 0.195735 0.445981
vt 0.197838 0.437125
vt 0.166773 0.519999
vt 0.168310 0.528742
vt 0.011832 0.519999
vt 0.010000 0.528848
vt 0.509866 0.853792
vt 0.812962 0.856916
vt 0.816036 0.848709
vt 0.508948 0.862565
vt 0.780036 0.847087
vt 0.783718 0.839231
vt 0.475127 0.848709
vt 0.473949 0.857648
vt 0.484767 0.874024
vt 0.519204 0.880336
vt 0.043880 0.448842
vt 0.012047 0.453487
vt 0.943776 0.610489
vt 0.607521 0.610827
vt 0.509497 0.203112
vt 0.870210 0.226803
vt 0.980193 0.618071
vt 0.886373 0.189763
vt 0.542347 0.885505
vt 0.656409 0.882129
vt 0.171726 0.446901
vt 0.065431 0.444759
vt 0.156754 0.607631
vt 0.042246 0.609235
vt 0.034898 0.518012
vt 0.141478 0.518581
vt 0.681585 0.874131
vt 0.194995 0.453609
vt 0.183758 0.615976
vt 0.166477 0.512341
vt 0.017945 0.615976
vt 0.012450 0.512359
vt 0.271094 0.245190
vt 0.598509 0.246046
vt 0.512255 0.846690
vt 0.814076 0.864091
vt 0.234852 0.236154
vt 0.779839 0.854725
vt 0.636116 0.237982
vt 0.477449 0.841290
# 144 texture coordinates

vn 0.000000 0.000000 1.000000
vn 0.000000 0.000000 1.000000
vn 0.000000 0.000000 1.000000
vn 0.000000 0.000000 1.000000
vn 0.000000 0.000000 1.000000
vn 0.000000 0.000000 1.000000
vn 0.000000 0.000000 1.000000
vn 0.000000 0.000000 1.000000
vn 0.000000 0.000000 1.000000
vn 0.000000 0.000000 1.000000
vn 0.000000 0.000000 1.000000
vn 0.000000 0.000000 1.000000
vn 0.000000 0.000000 -1.000000
vn 0.000000 0.000000 -1.000000
vn 0.000000 0.000000 -1.000000
vn 0.000000 0.000000 -1.000000
vn 0.000000 0.000000 -1.000000
vn 0.000000 0.000000 -1.000000
vn 0.000000 0.000000 -1.000000
vn 0.000000 0.000000 -1.000000
vn 0.000000 0.000000 -1.000000
vn 0.000000 0.000000 -1.000000
vn 0.000000 0.000000 -1.000000
vn 0.000000 0.000000 -1.000000
vn 0.805053 0.593203 0.000000
vn 0.805053 0.593203 0.000000
vn 0.805053 0.593203 0.000000
vn 0.805053 0.593203 0.000000
vn 0.000000 1.000000 0.000000
vn 0.000000 1.000000 0.000000
vn 0.000000 1.000000 0.000000
vn 0.000000 1.000000 0.000000
vn -0.774592 0.632461 0.000000
vn -0.774592 0.632461 0.000000
vn -0.774592 0.632461 0.000000
vn -0.774592 0.632461 0.000000
vn 1.000000 0.000000 0.000000
vn 1.000000 0.000000 0.000000
vn 1.000000 0.000000 0.000000
vn 1.000000 0.000000 0.000000
vn -1.000000 0.000000 0.000000
vn -1.000000 0.000000 0.000000
vn -1.000000 0.000000 0.000000
vn -1.000000 0.000000 0.000000
vn 0.627239 -0.778827 0.000000
vn 0.627239 -0.778827 0.000000
vn 0.627239 -0.778827 0.000000
vn 0.627239 -0.778827 0.000000
vn -0.587917 -0.808921 0.000000
vn -0.587917 -0.808921 0.000000
vn -0.587917 -0.808921 0.000000
vn -0.587917 -0.808921 0.000000
vn 0.708788 0.705421 0.000000
vn 0.708788 0.705421 0.000000
vn 0.708788 0.705421 0.000000
vn 0.708788 0.705421 0.000000
vn -0.671722 0.740803 0.000000
vn -0.671722 0.740803 0.000000
vn -0.671722 0.740803 0.000000
vn -0.671722 0.740803 0.000000
vn 0.000000 -1.000000 0.000000
vn 0.000000 -1.000000 0.000000
vn 0.000000 -1.000000 0.000000
vn 0.000000 -1.000000 0.000000
vn 0.815006 -0.579453 0.000000
vn 0.815006 -0.579453 0.000000
vn 0.815006 -0.579453 0.000000
vn 0.815006 -0.579453 0.000000
vn -0.791251 -0.611491 0.000000
vn -0.791251 -0.611491 0.000000
vn -0.791251 -0.611491 0.000000
vn -0.791251 -0.611491 0.000000
vn 0.000000 0.000000 1.000000
vn 0.000000 0.000000 1.000000
vn 0.000000 0.000000 1.000000
vn 0.000000 0.000000 1.000000
vn 0.000000 0.000000 1.000000
vn 0.000000 0.000000 1.000000
vn 0.000000 0.000000 1.000000
vn 0.000000 0.000000 1.000000
vn 0.000000 0.000000 1.000000
vn 0.000000 0.000000 1.000000
vn 0.000000 0.000000 1.000000
vn 0.000000 0.000000 1.000000
vn 0.000000 0.000000 1.000000
vn 0.000000 0.000000 1.000000
vn 0.000000 0.000000 1.000000
vn 0.000000 0.000000 1.000000
vn 0.000000 0.000000 1.000000
vn 0.000000 0.000000 1.000000
vn 0.000000 0.000000 1.000000
vn 0.000000 0.000000 1.000000
vn 0.000000 0.000000 1.000000
vn 0.000000 0.000000 1.000000
vn 0.000000 0.000000 1.000000
vn 0.000000 0.000000 1.000000
vn -0.805054 -0.593201 0.000000
vn -0.805054 -0.593201 0.000000
vn -0.805054 -0.593201 0.000000
vn -0.805054 -0.593201 0.000000
vn 0.000000 -1.000000 0.000000
vn 0.000000 -1.000000 0.000000
vn 0.000000 -1.000000 0.000000
vn 0.000000 -1.000000 0.000000
vn 0.774594 -0.632459 0.000000
vn 0.774594 -0.632459 0.000000
vn 0.774594 -0.632459 0.000000
vn 0.774594 -0.632459 0.000000
vn -1.000000 0.000000 0.000000
vn -1.000000 0.000000 0.000000
vn -1.000000 0.000000 0.000000
vn -1.000000 0.000000 0.000000
vn 1.000000 0.000000 0.000000
vn 1.000000 0.000000 0.000000
vn 1.000000 0.000000 0.000000
vn 1.000000 0.000000 0.000000
vn -0.627241 0.778825 0.000000
vn -0.627241 0.778825 0.000000
vn -0.627241 0.778825 0.000000
vn -0.627241 0.778825 0.000000
vn 0.587918 0.808920 0.000000
vn 0.587918 0.808920 0.000000
vn 0.587918 0.808920 0.000000
vn 0.587918 0.808920 0.000000
vn -0.708788 -0.705422 0.000000
vn -0.708788 -0.705422 0.000000
vn -0.708788 -0.705422 0.000000
vn -0.708788 -0.705422 0.000000
vn 0.671720 -0.740805 0.000000
vn 0.671720 -0.740805 0.000000
vn 0.671720 -0.740805 0.000000
vn 0.671720 -0.740805 0.000000
vn 0.000000 1.000000 0.000000
vn 0.000000 1.000000 0.000000
vn 0.000000 1.000000 0.000000
vn 0.000000 1.000000 0.000000
vn -0.815004 0.579455 0.000000
vn -0.815004 0.579455 0.000000
vn -0.815004 0.579455 0.000000
vn -0.815004 0.579455 0.000000
vn 0.791250 0.611493 0.000000
vn 0.791250 0.611493 0.000000
vn 0.791250 0.611493 0.000000
vn 0.791250 0.611493 0.000000
vn 0.686802 0.506069 0.521726
vn 0.686802 0.506069 0.521726
vn 0.686802 0.506069 0.521726
vn 0.686802 0.506069 0.521726
vn -0.702796 -0.517853 -0.487757
vn -0.702796 -0.517853 -0.487757
vn -0.702796 -0.517853 -0.487757
vn -0.702796 -0.517853 -0.487757
vn 0.000000 0.952634 0.304119
vn 0.000000 0.952634 0.304119
vn 0.000000 0.952634 0.304119
vn 0.000000 0.952634 0.304119
vn 0.000000 -0.960000 -0.280001
vn 0.000000 -0.960000 -0.280001
vn 0.000000 -0.960000 -0.280001
vn 0.000000 -0.960000 -0.280001
vn -0.664687 0.542723 0.513462
vn -0.664687 0.542723 0.513462
vn -0.664687 0.542723 0.513462
vn -0.664687 0.542723 0.513462
vn 0.679665 -0.554949 -0.479673
vn 0.679665 -0.554949 -0.479673
vn 0.679665 -0.554949 -0.479673
vn 0.679665 -0.554949 -0.479673
vn 0.841922 0.000000 0.539600
vn 0.841922 0.000000 0.539600
vn 0.841922 0.000000 0.539600
vn 0.841922 0.000000 0.539600
vn -0.862947 0.000000 -0.505294
vn -0.862947 0.000000 -0.505294
vn -0.862947 0.000000 -0.505294
vn -0.862947 0.000000 -0.505294
vn -0.841924 0.000000 0.539596
vn -0.841924 0.000000 0.539596
vn -0.841924 0.000000 0.539596
vn -0.841924 0.000000 0.539596
vn 0.862946 0.000000 -0.505297
vn 0.862946 0.000000 -0.505297
vn 0.862946 0.000000 -0.505297
vn 0.862946 0.000000 -0.505297
vn 0.552179 -0.685624 0.474361
vn 0.552179 -0.685624 0.474361
vn 0.552179 -0.685624 0.474361
vn 0.552179 -0.685624 0.474361
vn -0.562741 0.698739 -0.441686
vn -0.562741 0.698739 -0.441686
vn -0.562741 0.698739 -0.441686
vn -0.562741 0.698739 -0.441686
vn -0.521840 -0.718003 0.460603
vn -0.521840 -0.718003 0.460603
vn -0.521840 -0.718003 0.460603
vn -0.521840 -0.718003 0.460603
vn 0.531234 0.730929 -0.428407
vn 0.531234 0.730929 -0.428407
vn 0.531234 0.730929 -0.428407
vn 0.531234 0.730929 -0.428407
vn 0.612877 0.609965 0.502320
vn 0.612877 0.609965 0.502320
vn 0.612877 0.609965 0.502320
vn 0.612877 0.609965 0.502320
vn -0.626074 -0.623100 -0.468804
vn -0.626074 -0.623100 -0.468804
vn -0.626074 -0.623100 -0.468804
vn -0.626074 -0.623100 -0.468804
vn -0.585199 0.645383 0.490940
vn -0.585199 0.645383 0.490940
vn -0.585199 0.645383 0.490940
vn -0.585199 0.645383 0.490940
vn 0.597218 -0.658640 -0.457738
vn 0.597218 -0.658640 -0.457738
vn 0.597218 -0.658640 -0.457738
vn 0.597218 -0.658640 -0.457738
vn 0.000000 -0.952634 0.304119
vn 0.000000 -0.952634 0.304119
vn 0.000000 -0.952634 0.304119
vn 0.000000 -0.952634 0.304119
vn 0.000000 0.960000 -0.280001
vn 0.000000 0.960000 -0.280001
vn 0.000000 0.960000 -0.280001
vn 0.000000 0.960000 -0.280001
vn 0.698264 -0.496452 0.515716
vn 0.698264 -0.496452 0.515716
vn 0.698264 -0.496452 0.515716
vn 0.698264 -0.496452 0.515716
vn -0.714135 0.507738 -0.481885
vn -0.714135 0.507738 -0.481885
vn -0.714135 0.507738 -0.481885
vn -0.714135 0.507738 -0.481885
vn -0.681466 -0.526648 0.508179
vn -0.681466 -0.526648 0.508179
vn -0.681466 -0.526648 0.508179
vn -0.681466 -0.526648 0.508179
vn 0.696492 0.538260 -0.474527
vn 0.696492 0.538260 -0.474527
vn 0.696492 0.538260 -0.474527
vn 0.696492 0.538260 -0.474527
# 240 normals

usemtl initialShadingGroup
s 1
f 37/1/1 38/2/2 39/3/3 40/4/4
f 41/5/5 42/6/6 43/7/7 44/8/8
f 45/9/9 46/10/10 42/6/6 41/5/5
f 44/8/8 43/7/7 38/2/2 37/1/1
f 47/11/11 48/12/12 46/10/10 45/9/9
s 2
f 9/13/13 3/14/14 4/15/15 10/16/16
f 7/17/17 5/18/18 6/19/19 8/20/20
f 11/21/21 7/17/17 8/20/20 12/22/22
f 5/18/18 9/13/13 10/16/16 6/19/19
f 1/23/23 11/21/21 12/22/22 2/24/24
s 3
f 10/25/25 4/26/26 15/27/27 14/28/28
s 4
f 4/29/29 3/30/30 16/31/31 15/32/32
s 5
f 3/30/33 9/33/34 13/34/35 16/31/36
s 6
f 8/35/37 6/36/38 19/37/39 18/38/40
s 7
f 5/39/41 7/40/42 17/41/43 20/42/44
s 8
f 12/43/45 8/35/46 18/38/47 22/44/48
s 9
f 7/40/49 11/45/50 21/46/51 17/41/52
s 10
f 6/36/53 10/25/54 14/28/55 19/37/56
s 11
f 9/47/57 5/39/58 20/42/59 13/48/60
s 12
f 1/49/61 2/50/62 24/51/63 23/52/64
s 13
f 2/50/65 12/53/66 22/54/67 24/51/68
s 14
f 11/55/69 1/49/70 23/52/71 21/56/72
s 15
f 49/57/73 50/58/74 51/59/75 52/60/76
f 50/58/74 53/61/77 54/62/78 51/59/75
f 53/61/77 55/63/79 56/64/80 54/62/78
f 57/65/81 58/66/82 59/67/83 60/68/84
f 62/69/85 61/70/86 63/71/87 64/72/88
f 65/73/89 57/65/81 60/68/84 66/74/90
f 61/70/86 67/75/91 68/76/92 63/71/87
f 58/66/82 49/57/73 52/60/76 59/67/83
f 55/63/79 62/69/85 64/72/88 56/64/80
f 69/77/93 70/78/94 71/79/95 72/80/96
f 70/78/94 65/73/89 66/74/90 71/79/95
f 67/75/91 69/77/93 72/80/96 68/76/92
s 16
f 26/81/97 27/82/98 39/83/99 38/84/100
s 17
f 27/85/101 28/86/102 40/87/103 39/88/104
s 18
f 28/86/105 25/89/106 37/90/107 40/87/108
s 19
f 30/91/109 31/92/110 43/93/111 42/94/112
s 20
f 32/95/113 29/96/114 41/97/115 44/98/116
s 21
f 34/99/117 30/91/118 42/94/119 46/100/120
s 22
f 29/96/121 33/101/122 45/102/123 41/97/124
s 23
f 31/92/125 26/81/126 38/84/127 43/93/128
s 24
f 25/103/129 32/95/130 44/98/131 37/104/132
s 25
f 35/105/133 36/106/134 48/107/135 47/108/136
s 26
f 36/106/137 34/109/138 46/110/139 48/107/140
s 27
f 33/111/141 35/105/142 47/108/143 45/112/144
s 28
f 14/28/145 15/27/146 50/113/147 49/114/148
s 29
f 27/82/149 26/81/150 52/115/151 51/116/152
s 30
f 15/32/153 16/31/154 53/117/155 50/118/156
s 31
f 28/86/157 27/85/158 51/119/159 54/120/160
s 32
f 16/31/161 13/34/162 55/121/163 53/117/164
s 33
f 25/89/165 28/86/166 54/120/167 56/122/168
s 34
f 18/38/169 19/37/170 58/123/171 57/124/172
s 35
f 31/92/173 30/91/174 60/125/175 59/126/176
s 36
f 20/42/177 17/41/178 61/127/179 62/128/180
s 37
f 29/96/181 32/95/182 64/129/183 63/130/184
s 38
f 22/44/185 18/38/186 57/124/187 65/131/188
s 39
f 30/91/189 34/99/190 66/132/191 60/125/192
s 40
f 17/41/193 21/46/194 67/133/195 61/127/196
s 41
f 33/101/197 29/96/198 63/130/199 68/134/200
s 42
f 19/37/201 14/28/202 49/114/203 58/123/204
s 43
f 26/81/205 31/92/206 59/126/207 52/115/208
s 44
f 13/48/209 20/42/210 62/128/211 55/135/212
s 45
f 32/95/213 25/103/214 56/136/215 64/129/216
s 46
f 23/52/217 24/51/218 70/137/219 69/138/220
s 47
f 36/106/221 35/105/222 72/139/223 71/140/224
s 48
f 24/51/225 22/54/226 65/141/227 70/137/228
s 49
f 34/109/229 36/106/230 71/140/231 66/142/232
s 50
f 21/56/233 23/52/234 69/138/235 67/143/236
s 51
f 35/105/237 33/111/238 68/144/239 72/139/240

g pCube1

v -33.401211 -4.021851 20.105919
v 33.401211 -4.021851 20.105919
v -33.401211 1024.593994 20.105919
v 33.401211 1024.593994 20.105919
v -33.401211 1024.593994 -20.886795
v 33.401211 1024.593994 -20.886795
v -33.401211 -4.021851 -20.886795
v 33.401211 -4.021851 -20.886795
v -33.401211 1000.874207 20.105919
v 33.401211 1000.874207 20.105919
v 33.401211 1000.874512 -20.886795
v -33.401211 1000.874512 -20.886795
v -33.401211 985.335571 20.105919
v 33.401211 985.335571 20.105919
v 33.401211 985.335571 -20.886795
v -33.401211 985.335571 -20.886795
v -41.727627 985.456970 25.215343
v 41.727627 985.456970 25.215343
v 41.727627 1000.752808 25.215343
v -41.727627 1000.752808 25.215343
v 41.727627 985.456970 -25.996220
v 41.727627 1000.752991 -25.996220
v -41.727627 1000.752991 -25.996220
v -41.727627 985.456970 -25.996220
# 24 positions

vt 0.668166 0.444690
vt 0.603463 0.444690
vt 0.603463 0.421716
vt 0.668166 0.421716
vt 0.108580 0.504911
vt 0.043878 0.504911
vt 0.043878 0.465207
vt 0.108580 0.465207
vt 0.183965 0.499779
vt 0.119262 0.499779
vt 0.119262 0.476805
vt 0.183965 0.476805
vt 0.108580 0.304852
vt 0.043878 0.304852
vt 0.043878 0.265148
vt 0.108580 0.265148
vt 0.120178 0.282544
vt 0.159882 0.282544
vt 0.159882 0.305519
vt 0.120178 0.305519
vt 0.680651 0.421937
vt 0.720355 0.421937
vt 0.720355 0.444911
vt 0.680651 0.444911
vt 0.584083 0.830850
vt 0.503251 0.830850
vt 0.503251 0.816036
vt 0.584083 0.816036
vt 0.714556 0.969704
vt 0.664955 0.969704
vt 0.664955 0.954889
vt 0.714556 0.954889
vt 0.596032 0.821834
vt 0.676864 0.821834
vt 0.676864 0.836649
vt 0.596032 0.836649
vt 0.604067 0.955207
vt 0.653669 0.955207
vt 0.653669 0.970022
vt 0.604067 0.970022
vt 0.010000 0.766746
vt 0.010000 0.702043
vt 0.968256 0.702043
vt 0.968256 0.766746
vt 0.010000 0.410118
vt 0.010000 0.370414
vt 0.968256 0.370414
vt 0.968256 0.410118
vt 0.968256 0.626659
vt 0.968255 0.691361
vt 0.010000 0.691361
vt 0.010000 0.626659
vt 0.010000 0.357929
vt 0.010000 0.318225
vt 0.968255 0.318225
vt 0.968255 0.357929
vt 0.609014 0.464922
vt 0.609014 0.529628
vt 0.604064 0.537692
vt 0.604064 0.456857
vt 0.709606 0.529626
vt 0.709606 0.464922
vt 0.714556 0.456856
vt 0.714556 0.537692
vt 0.648719 0.529626
vt 0.653669 0.537692
vt 0.669901 0.529628
vt 0.664951 0.537692
vt 0.669901 0.464922
vt 0.664951 0.456857
vt 0.648719 0.464922
vt 0.653669 0.456857
# 72 texture coordinates

vn 0.000000 0.000000 1.000000
vn 0.000000 0.000000 1.000000
vn 0.000000 0.000000 1.000000
vn 0.000000 0.000000 1.000000
vn 0.000000 1.000000 0.000000
vn 0.000000 1.000000 0.000000
vn 0.000000 1.000000 0.000000
vn 0.000000 1.000000 0.000000
vn 0.000000 0.000000 -1.000000
vn 0.000000 0.000000 -1.000000
vn 0.000000 0.000000 -1.000000
vn 0.000000 0.000000 -1.000000
vn 0.000000 -1.000000 0.000000
vn 0.000000 -1.000000 0.000000
vn 0.000000 -1.000000 0.000000
vn 0.000000 -1.000000 0.000000
vn 1.000000 0.000000 0.000000
vn 1.000000 0.000000 0.000000
vn 1.000000 0.000000 0.000000
vn 1.000000 0.000000 0.000000
vn -1.000000 0.000000 0.000000
vn -1.000000 0.000000 0.000000
vn -1.000000 0.000000 0.000000
vn -1.000000 0.000000 0.000000
vn 0.000000 0.000000 1.000000
vn 0.000000 0.000000 1.000000
vn 0.000000 0.000000 1.000000
vn 0.000000 0.000000 1.000000
vn 1.000000 0.000000 0.000000
vn 1.000000 0.000000 0.000000
vn 1.000000 0.000000 0.000000
vn 1.000000 0.000000 0.000000
vn 0.000000 0.000000 -1.000000
vn 0.000000 0.000000 -1.000000
vn 0.000000 0.000000 -1.000000
vn 0.000000 0.000000 -1.000000
vn -1.000000 0.000000 0.000000
vn -1.000000 0.000000 0.000000
vn -1.000000 0.000000 0.000000
vn -1.000000 0.000000 0.000000
vn 0.000000 0.000000 1.000000
vn 0.000000 0.000000 1.000000
vn 0.000000 0.000000 1.000000
vn 0.000000 0.000000 1.000000
vn 1.000000 0.000000 0.000000
vn 1.000000 0.000000 0.000000
vn 1.000000 0.000000 0.000000
vn 1.000000 0.000000 0.000000
vn 0.000000 0.000000 -1.000000
vn 0.000000 0.000000 -1.000000
vn 0.000000 0.000000 -1.000000
vn 0.000000 0.000000 -1.000000
vn -1.000000 0.000000 0.000000
vn -1.000000 0.000000 0.000000
vn -1.000000 0.000000 0.000000
vn -1.000000 0.000000 0.000000
vn 0.000000 -0.999718 0.023753
vn 0.000000 -0.999718 0.023753
vn 0.000000 -0.999718 0.023753
vn 0.000000 -0.999718 0.023753
vn 0.000000 0.999718 0.023753
vn 0.000000 0.999718 0.023753
vn 0.000000 0.999718 0.023753
vn 0.000000 0.999718 0.023753
vn 0.014578 -0.999894 0.000000
vn 0.014578 -0.999894 0.000000
vn 0.014578 -0.999894 0.000000
vn 0.014578 -0.999894 0.000000
vn 0.014586 0.999894 0.000005
vn 0.014586 0.999894 0.000005
vn 0.014586 0.999894 0.000005
vn 0.014586 0.999894 0.000005
vn 0.000000 0.999717 -0.023777
vn 0.000000 0.999717 -0.023777
vn 0.000000 0.999717 -0.023777
vn 0.000000 0.999717 -0.023777
vn 0.000000 -0.999718 -0.023753
vn 0.000000 -0.999718 -0.023753
vn 0.000000 -0.999718 -0.023753
vn 0.000000 -0.999718 -0.023753
vn -0.014578 -0.999894 0.000000
vn -0.014578 -0.999894 0.000000
vn -0.014578 -0.999894 0.000000
vn -0.014578 -0.999894 0.000000
vn -0.014586 0.999894 0.000005
vn -0.014586 0.999894 0.000005
vn -0.014586 0.999894 0.000005
vn -0.014586 0.999894 0.000005
# 88 normals

usemtl initialShadingGroup
s 52
f 81/145/241 82/146/242 76/147/243 75/148/244
s 53
f 75/149/245 76/150/246 78/151/247 77/152/248
s 54
f 77/153/249 78/154/250 83/155/251 84/156/252
s 55
f 79/157/253 80/158/254 74/159/255 73/160/256
s 56
f 82/161/257 83/162/258 78/163/259 76/164/260
s 57
f 84/165/261 81/166/262 75/167/263 77/168/264
s 58
f 89/169/265 90/170/266 91/171/267 92/172/268
s 59
f 90/173/269 93/174/270 94/175/271 91/176/272
s 60
f 95/177/273 94/178/274 93/179/275 96/180/276
s 61
f 96/181/277 89/182/278 92/183/279 95/184/280
s 62
f 73/185/281 74/186/282 86/187/283 85/188/284
s 63
f 74/189/285 80/190/286 87/191/287 86/192/288
s 64
f 88/193/289 87/194/290 80/195/291 79/196/292
s 65
f 79/197/293 73/198/294 85/199/295 88/200/296
s 66
f 85/201/297 86/202/298 90/203/299 89/204/300
s 67
f 82/205/301 81/206/302 92/207/303 91/208/304
s 68
f 86/202/305 87/209/306 93/210/307 90/203/308
s 69
f 83/211/309 82/205/310 91/208/311 94/212/312
s 70
f 84/213/313 83/211/314 94/212/315 95/214/316
s 71
f 87/209/317 88/215/318 96/216/319 93/210/320
s 72
f 88/215/321 85/201/322 89/204/323 96/216/324
s 73
f 81/206/325 84/213/326 95/214/327 92/207/328

# 92 faces
