# This file uses meters as units for non-parametric coordinates.

mtllib Trilho_CurvoE.mtl
g trilho_curvo_E:default1
v -30.000592 0.000000 267.844419
v -67.150020 0.000000 267.844419
v -30.000592 22.841112 267.844419
v -67.150020 22.841112 267.844419
v -274.516684 22.841112 39.059125
v -274.516684 22.841112 76.208717
v -274.516684 0.000000 39.059125
v -274.516684 0.000000 76.208717
v -30.000592 22.841112 159.995164
v -33.501965 22.841112 121.153964
v -50.354303 22.841112 86.079914
v -91.207461 22.841112 54.192051
v -130.947256 22.841112 81.103095
v -89.355441 22.841112 104.072709
v -71.227742 22.841112 131.131470
v -67.150020 22.841112 166.932735
v -130.947256 0.000000 81.103095
v -89.355441 0.000000 104.072709
v -71.227742 0.000000 131.131470
v -67.150020 0.000000 166.932735
v -91.207461 0.000000 54.192051
v -50.354303 0.000000 86.079914
v -33.501965 0.000000 121.153964
v -30.000592 0.000000 159.995164
v -161.891791 22.841112 75.026427
v -161.891592 22.841112 37.610772
v -161.891592 0.000000 37.610772
v -161.891791 0.000000 75.026427
v -149.801214 1.510296 -267.844419
v -149.801214 1.510296 99.232321
v -149.801214 15.937047 -267.844419
v -149.801214 15.937047 99.232321
v -222.351234 15.937047 -267.844419
v -222.351323 15.937047 99.232354
v -222.351234 1.510296 -267.844419
v -222.351323 1.510296 99.232354
v 274.516684 1.510296 228.480275
v -92.560122 1.510296 228.480275
v 274.516684 15.937047 228.480275
v -92.560122 15.937047 228.480275
v 274.516684 15.937047 155.930222
v -92.560122 15.937047 155.930222
v 274.516684 1.510296 155.930222
v -92.560122 1.510296 155.930222
v 193.361016 1.510296 -148.133812
v -93.766377 1.510296 150.727802
v 193.361016 15.937047 -148.133812
v -93.766377 15.937047 150.727802
v 141.043606 15.937047 -198.397148
v -146.083809 15.937047 100.464544
v 141.043606 1.510296 -198.397148
v -146.083809 1.510296 100.464544
v 251.883039 0.000000 267.844198
v 214.733615 0.000000 267.844198
v 251.883039 22.841112 267.844198
v 214.733615 22.841112 267.844198
v -274.516640 22.841112 -242.175994
v -274.516640 22.841112 -205.026483
v -274.516640 0.000000 -242.175994
v -274.516640 0.000000 -205.026483
v 252.183551 22.841112 56.726161
v 213.007328 22.841112 -87.134359
v 103.597377 22.841112 -198.275637
v -41.656031 22.841112 -240.746059
v -70.413642 22.841112 -202.823313
v 74.141055 22.841112 -164.331940
v 176.110961 22.841112 -61.303429
v 214.088022 22.841112 85.679340
v -70.420552 0.000000 -202.822340
v 74.137675 0.000000 -164.330911
v 176.109390 0.000000 -61.300198
v 214.087004 0.000000 85.686189
v -41.656031 0.000000 -240.746059
v 103.597377 0.000000 -198.275637
v 213.007328 0.000000 -87.134359
v 252.183551 0.000000 56.726161
vt 0.585234 0.638814
vt 0.585234 0.664613
vt 0.543273 0.664613
vt 0.543273 0.638814
vt 0.569073 0.718844
vt 0.543273 0.718844
vt 0.543273 0.676883
vt 0.569073 0.676883
vt 0.258247 0.337991
vt 0.282638 0.380587
vt 0.221809 0.381262
vt 0.208608 0.336527
vt 0.178505 0.380554
vt 0.170231 0.336815
vt 0.134816 0.380494
vt 0.131096 0.338126
vt 0.332626 0.339407
vt 0.319555 0.379995
vt 0.011408 0.339832
vt 0.019172 0.384638
vt 0.457023 0.340164
vt 0.448568 0.385274
vt 0.334897 0.312732
vt 0.257278 0.312864
vt 0.286064 0.270125
vt 0.324064 0.272817
vt 0.128041 0.310642
vt 0.010000 0.311257
vt 0.014236 0.268078
vt 0.129311 0.269162
vt 0.173511 0.267455
vt 0.166069 0.310545
vt 0.204159 0.311717
vt 0.220672 0.267068
vt 0.457991 0.311257
vt 0.452347 0.268087
vt 0.317061 0.405142
vt 0.279531 0.405218
vt 0.021720 0.410898
vt 0.136752 0.405870
vt 0.178712 0.405663
vt 0.218706 0.405857
vt 0.445610 0.411534
vt 0.567976 0.207813
vt 0.584271 0.207813
vt 0.584271 0.622433
vt 0.567976 0.622433
vt 0.666217 0.207813
vt 0.666218 0.622433
vt 0.682513 0.207813
vt 0.682513 0.622433
vt 0.486029 0.207813
vt 0.486029 0.622433
vt 0.532453 0.827307
vt 0.516158 0.827307
vt 0.516158 0.745360
vt 0.532453 0.745360
vt 0.516158 0.651962
vt 0.532453 0.651962
vt 0.532453 0.733908
vt 0.516158 0.733908
vt 0.424620 0.504883
vt 0.424620 0.521179
vt 0.010000 0.521179
vt 0.010000 0.504883
vt 0.424620 0.603125
vt 0.010000 0.603125
vt 0.424620 0.619420
vt 0.010000 0.619420
vt 0.424620 0.422937
vt 0.010000 0.422937
vt 0.505337 0.827307
vt 0.489042 0.827307
vt 0.489042 0.745360
vt 0.505337 0.745360
vt 0.489042 0.651962
vt 0.505337 0.651962
vt 0.505337 0.733908
vt 0.489042 0.733908
vt 0.010000 0.745360
vt 0.010000 0.729065
vt 0.478117 0.729065
vt 0.478117 0.745360
vt 0.010000 0.647118
vt 0.478117 0.647118
vt 0.010000 0.630823
vt 0.478117 0.630823
vt 0.010000 0.827307
vt 0.478117 0.827307
vt 0.454119 0.619420
vt 0.437824 0.619420
vt 0.437824 0.537474
vt 0.454119 0.537474
vt 0.437824 0.444076
vt 0.454119 0.444076
vt 0.454119 0.526022
vt 0.437824 0.526022
vt 0.569073 0.827307
vt 0.543273 0.827307
vt 0.543273 0.785346
vt 0.569073 0.785346
vt 0.569073 0.773075
vt 0.543273 0.773075
vt 0.543273 0.731114
vt 0.569073 0.731114
vt 0.268471 0.910835
vt 0.246557 0.865543
vt 0.423086 0.864536
vt 0.429689 0.911986
vt 0.597735 0.865860
vt 0.595308 0.914755
vt 0.776189 0.869199
vt 0.754215 0.915026
vt 0.010000 0.913875
vt 0.016016 0.867247
vt 0.989459 0.913945
vt 0.983036 0.867307
vt 0.010314 0.942387
vt 0.269693 0.936094
vt 0.245628 0.981922
vt 0.017186 0.985140
vt 0.756551 0.939952
vt 0.990000 0.942387
vt 0.983510 0.985269
vt 0.780152 0.985806
vt 0.600406 0.990000
vt 0.599221 0.940347
vt 0.433193 0.937103
vt 0.422546 0.985497
vt 0.018647 0.840945
vt 0.250402 0.840851
vt 0.426854 0.839330
vt 0.979989 0.841005
vt 0.773880 0.844509
vt 0.598450 0.840351
vn 0.000000 0.000000 1.000000
vn 0.000000 0.000000 1.000000
vn 0.000000 0.000000 1.000000
vn 0.000000 0.000000 1.000000
vn -1.000000 0.000000 0.000000
vn -1.000000 0.000000 0.000000
vn -1.000000 0.000000 0.000000
vn -1.000000 0.000000 0.000000
vn 0.000000 1.000000 0.000000
vn 0.000000 1.000000 0.000000
vn 0.000000 1.000000 0.000000
vn 0.000000 1.000000 0.000000
vn 0.000000 1.000000 0.000000
vn 0.000000 1.000000 0.000000
vn 0.000000 1.000000 0.000000
vn 0.000000 1.000000 0.000000
vn 0.000000 1.000000 0.000000
vn 0.000000 1.000000 0.000000
vn 0.000000 1.000000 0.000000
vn 0.000000 1.000000 0.000000
vn 0.000000 1.000000 0.000000
vn 0.000000 1.000000 0.000000
vn 0.000000 1.000000 0.000000
vn 0.000000 1.000000 0.000000
vn 0.000000 1.000000 0.000000
vn 0.000000 1.000000 0.000000
vn 0.000000 1.000000 0.000000
vn 0.000000 1.000000 0.000000
vn 0.000000 1.000000 0.000000
vn 0.000000 1.000000 0.000000
vn 0.000000 1.000000 0.000000
vn 0.000000 1.000000 0.000000
vn 0.000000 -1.000000 0.000000
vn 0.000000 -1.000000 0.000000
vn 0.000000 -1.000000 0.000000
vn 0.000000 -1.000000 0.000000
vn 0.000000 -1.000000 0.000000
vn 0.000000 -1.000000 0.000000
vn 0.000000 -1.000000 0.000000
vn 0.000000 -1.000000 0.000000
vn 0.000000 -1.000000 0.000000
vn 0.000000 -1.000000 0.000000
vn 0.000000 -1.000000 0.000000
vn 0.000000 -1.000000 0.000000
vn 0.000000 -1.000000 0.000000
vn 0.000000 -1.000000 0.000000
vn 0.000000 -1.000000 0.000000
vn 0.000000 -1.000000 0.000000
vn 0.000000 -1.000000 0.000000
vn 0.000000 -1.000000 0.000000
vn 0.000000 -1.000000 0.000000
vn 0.000000 -1.000000 0.000000
vn 0.000000 -1.000000 0.000000
vn 0.000000 -1.000000 0.000000
vn 0.000000 -1.000000 0.000000
vn 0.000000 -1.000000 0.000000
vn -0.342186 0.000000 0.939632
vn -0.091576 0.000000 0.995798
vn -0.091576 0.000000 0.995798
vn -0.342186 0.000000 0.939632
vn -1.000000 0.000000 0.000000
vn -1.000000 0.000000 0.000000
vn -0.998393 0.000000 0.056675
vn -0.998393 0.000000 0.056675
vn -0.938741 0.000000 0.344623
vn -0.938741 0.000000 0.344623
vn -0.998393 0.000000 0.056675
vn -0.998393 0.000000 0.056675
vn -0.342186 0.000000 0.939632
vn -0.342186 0.000000 0.939632
vn -0.676173 0.000000 0.736743
vn -0.676173 0.000000 0.736743
vn -0.676173 0.000000 0.736743
vn -0.676173 0.000000 0.736743
vn -0.938741 0.000000 0.344623
vn -0.938741 0.000000 0.344623
vn -0.091576 0.000000 0.995798
vn 0.010497 0.000000 0.999945
vn 0.010497 0.000000 0.999945
vn -0.091576 0.000000 0.995798
vn 0.108564 0.000000 -0.994089
vn 0.431894 0.000000 -0.901924
vn 0.431894 0.000000 -0.901924
vn 0.108564 0.000000 -0.994089
vn 0.998990 0.000000 -0.044936
vn 1.000000 0.000000 0.000000
vn 1.000000 0.000000 0.000000
vn 0.998990 0.000000 -0.044936
vn 0.998990 0.000000 -0.044936
vn 0.998990 0.000000 -0.044936
vn 0.964062 0.000000 -0.265677
vn 0.964062 0.000000 -0.265677
vn 0.964062 0.000000 -0.265677
vn 0.964062 0.000000 -0.265677
vn 0.778848 0.000000 -0.627213
vn 0.778848 0.000000 -0.627213
vn 0.778848 0.000000 -0.627213
vn 0.778848 0.000000 -0.627213
vn 0.431894 0.000000 -0.901924
vn 0.431894 0.000000 -0.901924
vn -0.012859 0.000000 -0.999917
vn -0.012859 0.000000 -0.999917
vn 0.108564 0.000000 -0.994089
vn 0.108564 0.000000 -0.994089
vn 1.000000 0.000000 0.000000
vn 1.000000 0.000000 0.000000
vn 1.000000 0.000000 0.000000
vn 1.000000 0.000000 0.000000
vn 0.000000 1.000000 0.000000
vn 0.000000 1.000000 0.000000
vn 0.000000 1.000000 0.000000
vn 0.000000 1.000000 0.000000
vn -1.000000 0.000000 -0.000000
vn -1.000000 0.000000 -0.000000
vn -1.000000 0.000000 -0.000000
vn -1.000000 0.000000 -0.000000
vn 0.000000 -1.000000 0.000000
vn 0.000000 -1.000000 0.000000
vn 0.000000 -1.000000 0.000000
vn 0.000000 -1.000000 0.000000
vn 0.000000 0.000000 1.000000
vn 0.000000 0.000000 1.000000
vn 0.000000 0.000000 1.000000
vn 0.000000 0.000000 1.000000
vn 0.000000 0.000000 -1.000000
vn 0.000000 0.000000 -1.000000
vn 0.000000 0.000000 -1.000000
vn 0.000000 0.000000 -1.000000
vn 0.000000 0.000000 1.000000
vn 0.000000 0.000000 1.000000
vn 0.000000 0.000000 1.000000
vn 0.000000 0.000000 1.000000
vn 0.000000 1.000000 0.000000
vn 0.000000 1.000000 0.000000
vn 0.000000 1.000000 0.000000
vn 0.000000 1.000000 0.000000
vn 0.000000 0.000000 -1.000000
vn 0.000000 0.000000 -1.000000
vn 0.000000 0.000000 -1.000000
vn 0.000000 0.000000 -1.000000
vn 0.000000 -1.000000 0.000000
vn 0.000000 -1.000000 0.000000
vn 0.000000 -1.000000 0.000000
vn 0.000000 -1.000000 0.000000
vn -1.000000 0.000000 0.000000
vn -1.000000 0.000000 0.000000
vn -1.000000 0.000000 0.000000
vn -1.000000 0.000000 0.000000
vn 1.000000 0.000000 0.000000
vn 1.000000 0.000000 0.000000
vn 1.000000 0.000000 0.000000
vn 1.000000 0.000000 0.000000
vn 0.721122 0.000000 0.692808
vn 0.721122 0.000000 0.692808
vn 0.721122 0.000000 0.692808
vn 0.721122 0.000000 0.692808
vn 0.000000 1.000000 0.000000
vn 0.000000 1.000000 0.000000
vn 0.000000 1.000000 0.000000
vn 0.000000 1.000000 0.000000
vn -0.721122 0.000000 -0.692808
vn -0.721122 0.000000 -0.692808
vn -0.721122 0.000000 -0.692808
vn -0.721122 0.000000 -0.692808
vn 0.000000 -1.000000 0.000000
vn 0.000000 -1.000000 0.000000
vn 0.000000 -1.000000 0.000000
vn 0.000000 -1.000000 0.000000
vn -0.692808 0.000000 0.721122
vn -0.692808 0.000000 0.721122
vn -0.692808 0.000000 0.721122
vn -0.692808 0.000000 0.721122
vn 0.692809 0.000000 -0.721121
vn 0.692809 0.000000 -0.721121
vn 0.692809 0.000000 -0.721121
vn 0.692809 0.000000 -0.721121
vn 0.000000 0.000000 1.000000
vn 0.000000 0.000000 1.000000
vn 0.000000 0.000000 1.000000
vn 0.000000 0.000000 1.000000
vn -1.000000 0.000000 0.000000
vn -1.000000 0.000000 0.000000
vn -1.000000 0.000000 0.000000
vn -1.000000 0.000000 0.000000
vn 0.000000 1.000000 0.000000
vn 0.000000 1.000000 0.000000
vn 0.000000 1.000000 0.000000
vn 0.000000 1.000000 0.000000
vn 0.000000 1.000000 0.000000
vn 0.000000 1.000000 0.000000
vn 0.000000 1.000000 0.000000
vn 0.000000 1.000000 0.000000
vn 0.000000 1.000000 0.000000
vn 0.000000 1.000000 0.000000
vn 0.000000 1.000000 0.000000
vn 0.000000 1.000000 0.000000
vn 0.000000 1.000000 0.000000
vn 0.000000 1.000000 0.000000
vn 0.000000 1.000000 0.000000
vn 0.000000 1.000000 0.000000
vn 0.000000 1.000000 0.000000
vn 0.000000 1.000000 0.000000
vn 0.000000 1.000000 0.000000
vn 0.000000 1.000000 0.000000
vn 0.000000 -1.000000 0.000000
vn 0.000000 -1.000000 0.000000
vn 0.000000 -1.000000 0.000000
vn 0.000000 -1.000000 0.000000
vn 0.000000 -1.000000 0.000000
vn 0.000000 -1.000000 0.000000
vn 0.000000 -1.000000 0.000000
vn 0.000000 -1.000000 0.000000
vn 0.000000 -1.000000 0.000000
vn 0.000000 -1.000000 0.000000
vn 0.000000 -1.000000 0.000000
vn 0.000000 -1.000000 0.000000
vn 0.000000 -1.000000 0.000000
vn 0.000000 -1.000000 0.000000
vn 0.000000 -1.000000 0.000000
vn 0.000000 -1.000000 0.000000
vn 0.000000 -1.000000 0.000000
vn 0.000000 -1.000000 0.000000
vn 0.000000 -1.000000 0.000000
vn 0.000000 -1.000000 0.000000
vn -0.135101 0.000062 0.990832
vn -0.010796 0.000023 0.999942
vn -0.010796 0.000023 0.999942
vn -0.135101 0.000062 0.990832
vn -0.135101 0.000062 0.990832
vn -0.135101 0.000062 0.990832
vn -0.257307 0.000100 0.966330
vn -0.257307 0.000100 0.966330
vn 0.006141 0.000000 -0.999981
vn 0.006141 0.000000 -0.999981
vn 0.144789 0.000000 -0.989463
vn 0.144789 0.000000 -0.989463
vn 0.991271 0.000000 -0.131840
vn 0.999999 0.000000 0.001423
vn 0.999999 0.000000 0.001423
vn 0.991271 0.000000 -0.131840
vn 0.991271 0.000000 -0.131840
vn 0.991271 0.000000 -0.131840
vn 0.866968 0.000000 -0.498364
vn 0.866968 0.000000 -0.498364
vn 0.866968 0.000000 -0.498364
vn 0.866968 0.000000 -0.498364
vn 0.513152 0.000000 -0.858298
vn 0.513152 0.000000 -0.858298
vn 0.513152 0.000000 -0.858298
vn 0.513152 0.000000 -0.858298
vn 0.144789 0.000000 -0.989463
vn 0.144789 0.000000 -0.989463
vn -0.999994 0.000023 0.003547
vn -0.999994 0.000023 0.003547
vn -0.991794 0.000067 0.127846
vn -0.991794 0.000067 0.127846
vn -0.968204 0.000110 0.250161
vn -0.968204 0.000110 0.250161
vn -0.991794 0.000067 0.127846
vn -0.991794 0.000067 0.127846
vn -0.710749 0.000143 0.703445
vn -0.710749 0.000143 0.703445
vn -0.710749 0.000143 0.703445
vn -0.710749 0.000143 0.703445
s off
g trilho_curvo_E:pCube15 trilho_curvo_E:trilho_curvo_E trilho_curvo_E:polySurface1
usemtl initialShadingGroup
f 1/1/1 3/2/2 4/3/3 2/4/4
f 5/5/5 7/6/6 8/7/7 6/8/8
f 12/9/9 13/10/10 14/11/11 11/12/12
f 11/12/13 14/11/14 15/13/15 10/14/16
f 10/14/17 15/13/18 16/15/19 9/16/20
f 12/9/21 26/17/22 25/18/23 13/10/24
f 3/19/25 9/16/26 16/15/27 4/20/28
f 26/17/29 5/21/30 6/22/31 25/18/32
f 27/23/33 21/24/34 17/25/35 28/26/36
f 24/27/37 1/28/38 2/29/39 20/30/40
f 19/31/41 23/32/42 24/27/43 20/30/44
f 17/25/45 21/24/46 22/33/47 18/34/48
f 18/34/49 22/33/50 23/32/51 19/31/52
f 7/35/53 27/23/54 28/26/55 8/36/56
f 13/10/57 25/18/58 28/37/59 17/38/60
f 2/39/61 4/20/62 16/15/63 20/40/64
f 15/13/65 19/41/66 20/40/67 16/15/68
f 13/10/69 17/38/70 18/42/71 14/11/72
f 14/11/73 18/42/74 19/41/75 15/13/76
f 25/18/77 6/22/78 8/43/79 28/37/80
f 26/17/81 12/9/82 21/24/83 27/23/84
f 9/16/85 3/19/86 1/28/87 24/27/88
f 9/16/89 24/27/90 23/32/91 10/14/92
f 10/14/93 23/32/94 22/33/95 11/12/96
f 11/12/97 22/33/98 21/24/99 12/9/100
f 7/35/101 5/21/102 26/17/103 27/23/104
g trilho_curvo_E:polySurface30 trilho_curvo_E:trilho_curvo_E trilho_curvo_E:polySurface1
f 29/44/105 31/45/106 32/46/107 30/47/108
f 31/45/109 33/48/110 34/49/111 32/46/112
f 33/48/113 35/50/114 36/51/115 34/49/116
f 35/52/117 29/44/118 30/47/119 36/53/120
f 30/54/121 32/55/122 34/56/123 36/57/124
f 35/58/125 33/59/126 31/60/127 29/61/128
g trilho_curvo_E:polySurface29 trilho_curvo_E:trilho_curvo_E trilho_curvo_E:polySurface1
f 37/62/129 39/63/130 40/64/131 38/65/132
f 39/63/133 41/66/134 42/67/135 40/64/136
f 41/66/137 43/68/138 44/69/139 42/67/140
f 43/70/141 37/62/142 38/65/143 44/71/144
f 38/72/145 40/73/146 42/74/147 44/75/148
f 43/76/149 41/77/150 39/78/151 37/79/152
g trilho_curvo_E:polySurface28 trilho_curvo_E:trilho_curvo_E trilho_curvo_E:polySurface1
f 45/80/153 47/81/154 48/82/155 46/83/156
f 47/81/157 49/84/158 50/85/159 48/82/160
f 49/84/161 51/86/162 52/87/163 50/85/164
f 51/88/165 45/80/166 46/83/167 52/89/168
f 46/90/169 48/91/170 50/92/171 52/93/172
f 51/94/173 49/95/174 47/96/175 45/97/176
g trilho_curvo_E:polySurface27 trilho_curvo_E:trilho_curvo_E trilho_curvo_E:polySurface1
f 53/98/177 55/99/178 56/100/179 54/101/180
f 57/102/181 59/103/182 60/104/183 58/105/184
f 64/106/185 65/107/186 66/108/187 63/109/188
f 63/109/189 66/108/190 67/110/191 62/111/192
f 62/111/193 67/110/194 68/112/195 61/113/196
f 64/106/197 57/114/198 58/115/199 65/107/200
f 55/116/201 61/113/202 68/112/203 56/117/204
f 59/118/205 73/119/206 69/120/207 60/121/208
f 76/122/209 53/123/210 54/124/211 72/125/212
f 71/126/213 75/127/214 76/122/215 72/125/216
f 69/120/217 73/119/218 74/128/219 70/129/220
f 70/129/221 74/128/222 75/127/223 71/126/224
f 65/107/225 58/115/226 60/130/227 69/131/228
f 65/107/229 69/131/230 70/132/231 66/108/232
f 59/118/233 57/114/234 64/106/235 73/119/236
f 61/113/237 55/116/238 53/123/239 76/122/240
f 61/113/241 76/122/242 75/127/243 62/111/244
f 62/111/245 75/127/246 74/128/247 63/109/248
f 63/109/249 74/128/250 73/119/251 64/106/252
f 54/133/253 56/117/254 68/112/255 72/134/256
f 67/110/257 71/135/258 72/134/259 68/112/260
f 66/108/261 70/132/262 71/135/263 67/110/264
